<svg xmlns="http://www.w3.org/2000/svg" xmlns:xlink="http://www.w3.org/1999/xlink" viewBox="0 0 800.0 1100.0" width="80mm" height="110mm"><defs><style><![CDATA[@import url('https://fonts.googleapis.com/css2?family=Alegreya+SC:wght@400;500&family=Ballet&family=Baskervville+SC&family=Cinzel:wght@500;600&family=Cormorant+Garamond:ital,wght@0,500;0,600;1,500&family=Cutive+Mono&family=EB+Garamond:ital,wght@0,400;0,500;0,700;1,400&family=Estonia&family=Felipa&family=Girassol&family=Great+Vibes&family=Italianno&family=Manufacturing+Consent&family=Marcellus&family=Mate+SC&family=MonteCarlo&family=Montagu+Slab:wght@500;600&family=Mrs+Saint+Delafield&family=Nixie+One&family=Pinyon+Script&family=Playfair+Display:wght@600;700&family=Prata&family=Tinos:ital,wght@0,400;0,700;1,400&family=Jost:wght@300;400;500;600&family=Archivo:wght@300;400;500;600;700;800&family=Barlow+Condensed:wght@600;700&family=Barlow:wght@600;700&family=Permanent+Marker&family=Anton&family=Bebas+Neue&family=Caveat:wght@500;600;700&family=Fraunces:ital,wght@0,400;0,500;0,600;0,700;1,500&display=swap');]]></style></defs><rect x="-20" y="-20" width="840.0" height="1140.0" fill="#EFE8D6"/><path d="M 394.7 85.3 C 391.7 73.3 392.7 67.3 389.7 55.3" fill="none" stroke="#5F6B39" stroke-width="0.90"/><path d="M 393.5 76.5 q 4.5 -3.1 9.0 0 q -4.5 3.1 -9.0 0 z" fill="#5F6B39" transform="rotate(39.0 393.5 76.5)"/><path d="M 393.5 76.5 q 4.5 -3.1 9.0 0 q -4.5 3.1 -9.0 0 z" fill="#5F6B39" transform="rotate(-129.0 393.5 76.5)"/><path d="M 392.4 67.6 q 4.5 -3.1 9.0 0 q -4.5 3.1 -9.0 0 z" fill="#5F6B39" transform="rotate(33.0 392.4 67.6)"/><path d="M 392.4 67.6 q 4.5 -3.1 9.0 0 q -4.5 3.1 -9.0 0 z" fill="#5F6B39" transform="rotate(-123.0 392.4 67.6)"/><path d="M 391.2 58.8 q 4.5 -3.1 9.0 0 q -4.5 3.1 -9.0 0 z" fill="#5F6B39" transform="rotate(27.0 391.2 58.8)"/><path d="M 391.2 58.8 q 4.5 -3.1 9.0 0 q -4.5 3.1 -9.0 0 z" fill="#5F6B39" transform="rotate(-117.0 391.2 58.8)"/><circle cx="389.7" cy="55.3" r="2.1" fill="#D71920"/><path d="M 405.3 85.3 C 408.3 73.3 407.3 67.3 410.3 55.3" fill="none" stroke="#5F6B39" stroke-width="0.90"/><path d="M 406.5 76.5 q 4.5 -3.1 9.0 0 q -4.5 3.1 -9.0 0 z" fill="#5F6B39" transform="rotate(-51.0 406.5 76.5)"/><path d="M 406.5 76.5 q 4.5 -3.1 9.0 0 q -4.5 3.1 -9.0 0 z" fill="#5F6B39" transform="rotate(141.0 406.5 76.5)"/><path d="M 407.6 67.6 q 4.5 -3.1 9.0 0 q -4.5 3.1 -9.0 0 z" fill="#5F6B39" transform="rotate(-57.0 407.6 67.6)"/><path d="M 407.6 67.6 q 4.5 -3.1 9.0 0 q -4.5 3.1 -9.0 0 z" fill="#5F6B39" transform="rotate(147.0 407.6 67.6)"/><path d="M 408.8 58.8 q 4.5 -3.1 9.0 0 q -4.5 3.1 -9.0 0 z" fill="#5F6B39" transform="rotate(-63.0 408.8 58.8)"/><path d="M 408.8 58.8 q 4.5 -3.1 9.0 0 q -4.5 3.1 -9.0 0 z" fill="#5F6B39" transform="rotate(153.0 408.8 58.8)"/><circle cx="410.3" cy="55.3" r="2.1" fill="#D71920"/><text x="400.0" y="133.3" font-family="'Cormorant Garamond', serif" font-weight="600" font-size="33.5" text-anchor="middle" fill="#6a6a4c" letter-spacing="7.37">GRAND VIN</text><text x="400.0" y="262.3" font-family="'Fraunces',serif" font-weight="600" font-size="137.5" text-anchor="middle" fill="#33341f">Château</text><text x="400.0" y="405.3" font-family="'Fraunces',serif" font-weight="600" font-size="137.5" text-anchor="middle" fill="#33341f">Margaux</text><text x="400.0" y="478.7" font-family="'Cormorant Garamond', serif" font-weight="500" font-size="44.1" text-anchor="middle" fill="#6a6a4c" font-style="italic">Margaux AOC</text><line x1="343.6" y1="508.7" x2="389.4" y2="508.7" stroke="#5F6B39" stroke-width="2.47"/><line x1="410.6" y1="508.7" x2="456.4" y2="508.7" stroke="#5F6B39" stroke-width="2.47"/><path d="M 391.2 508.7 q 10.6 -8.5 21.2 0 q -10.6 8.5 -21.2 0 z" fill="#5F6B39" transform="rotate(0.0 391.2 508.7)"/><path d="M 408.8 508.7 q 10.6 -8.5 21.2 0 q -10.6 8.5 -21.2 0 z" fill="#5F6B39" transform="rotate(180.0 408.8 508.7)"/><text x="400.0" y="814.0" font-family="'Cormorant Garamond', serif" font-weight="600" font-size="42.3" text-anchor="middle" fill="#33341f">Cabernet Sauvignon</text><text x="400.0" y="862.0" font-family="'Cormorant Garamond', serif" font-weight="500" font-size="35.3" text-anchor="middle" fill="#6a6a4c">Bordeaux, France · Vieilles Vignes</text><text x="400.0" y="907.1" font-family="'Cormorant Garamond', serif" font-weight="500" font-size="33.5" text-anchor="middle" fill="#6a6a4c">Grand Cru Classé</text><text x="400.0" y="959.0" font-family="'Fraunces',serif" font-weight="600" font-size="42.3" text-anchor="middle" fill="#33341f">2018</text><text x="400.0" y="1002.7" font-family="'Cormorant Garamond', serif" font-weight="500" font-size="30.0" text-anchor="middle" fill="#6a6a4c" letter-spacing="1.80">Dry, Red, Wine</text><text x="400.0" y="1044.0" font-family="'Cormorant Garamond', serif" font-weight="500" font-size="30.0" text-anchor="middle" fill="#6a6a4c">13.5 750</text></svg>